<?xml version="1.0" encoding="UTF-8" standalone="no"?>
<svg xmlns="http://www.w3.org/2000/svg" xmlns:xlink="http://www.w3.org/1999/xlink" version="1.1" id="Layer_1" x="0px" y="0px" width="270px" height="52.59px" viewBox="0 0 270 52.59" enable-background="new 0 0 270 52.59" xml:space="preserve">
<g>
	<g>
		<path fill="#424A52" d="M141.834,20.657v-9.136c7.163,0.147,14.543-2.483,15.055-10.523h10.303v50.938H154.04V20.657H141.834z"></path>
		<path fill="#424A52" d="M185.064,36.148c0.074,4.021,4.459,6.358,8.188,6.358c4.821,0,8.477-3.215,8.477-8.187    c0-4.967-2.922-8.402-8.039-8.402c-3.508,0-6.139,0.806-8.11,3.872h-11.254l4.969-28.792h32.155V11.52h-22.583l-1.899,9.28h0.146    c2.558-2.482,6.064-3.653,9.938-3.653c10.449,0,17.099,5.993,17.099,16.588c0,12.572-9.061,18.854-20.897,18.854    c-11.108,0-19.879-4.237-20.61-16.441L185.064,36.148L185.064,36.148z"></path>
	</g>
	<path fill="#424A52" d="M244.188,0.632c-14.258,0-25.813,11.558-25.813,25.814c0,14.254,11.558,25.812,25.813,25.812   S270,40.698,270,26.446C270,12.189,258.443,0.632,244.188,0.632z"></path>
	<g>
		<g>
			<path fill="#FFFFFF" d="M256.729,25.507c0.728-0.992,1.144-2.243,1.147-3.57c0.005-3.406-2.735-6.161-6.14-6.168     c-0.461,0-0.916,0.046-1.353,0.128c-0.811-2.454-3.184-4.229-5.909-4.229c-2.728,0-5.099,1.774-5.908,4.229     c-0.437-0.082-0.892-0.128-1.349-0.128c-3.407,0.007-6.146,2.762-6.14,6.168c0.001,1.327,0.418,2.578,1.146,3.57     c-1.625,1.046-2.681,2.876-2.675,4.953c0.003,3.24,2.63,5.859,5.87,5.854l4.344-0.007c0.875-0.006,1.621-0.609,1.828-1.424     c0.789,0.459,1.331,1.312,1.334,2.287v0.418c0,1.427-1.443,2.593-3.273,2.697c-0.055,0-0.094,0.051-0.094,0.102     c0,0.044,0.022,0.085,0.062,0.093c1.516,0.558,3.148,0.864,4.854,0.864s3.338-0.309,4.853-0.864     c0.04-0.008,0.062-0.049,0.062-0.093c0-0.051-0.037-0.102-0.089-0.102c-1.835-0.104-3.278-1.271-3.278-2.697V37.17     c0.004-0.975,0.543-1.828,1.336-2.287c0.207,0.812,0.949,1.418,1.826,1.424l4.346,0.007c3.242,0.005,5.863-2.614,5.867-5.854     C259.404,28.383,258.348,26.553,256.729,25.507z"></path>
		</g>
	</g>
	<g>
		<g>
			<path fill="#424A52" d="M18.393,39.926v6.605c0,2.256,0.657,3.488,2.499,3.488c1.759,0,2.465-1.498,2.465-3.354v-6.74h2.072v7.15     c0,2.91-1.873,4.555-4.604,4.555c-3.122,0-4.75-1.529-4.75-4.67v-7.035H18.393z"></path>
			<path fill="#424A52" d="M38.826,51.434h-1.675c-2.204-2.646-4.407-5.277-6.576-8.252h-0.033v8.252h-1.858V39.926h1.693     c2.203,2.629,4.39,5.242,6.559,8.201h0.033v-8.201h1.857V51.434z"></path>
			<path fill="#424A52" d="M42.214,51.434V39.926h2.318v11.508H42.214z"></path>
			<path fill="#424A52" d="M50.861,51.434l-4.274-11.346l2.467-0.328c1.018,2.927,2.021,5.854,3.025,9.176h0.032     c1.052-3.322,2.122-6.249,3.189-9.176l1.989,0.328l-4.538,11.346H50.861z"></path>
			<path fill="#424A52" d="M65.557,41.469h-3.862v3.156h3.781v1.547h-3.781v3.716h4.571v1.546h-6.888V39.926h6.179V41.469z"></path>
			<path fill="#424A52" d="M68.944,39.926h3.995c2.205,0,3.684,1.05,3.684,3.009c0,1.708-0.854,2.694-1.941,3.335l2.73,4.916     l-2.432,0.445l-2.335-4.801h-1.381v4.604h-2.319L68.944,39.926L68.944,39.926z M71.263,45.286H72.2     c1.596,0,2.104-1.234,2.104-2.072c0-1.299-0.921-1.744-1.841-1.744h-1.201L71.263,45.286L71.263,45.286z"></path>
			<path fill="#424A52" d="M85.369,41.932c-0.51-0.346-1.184-0.658-1.858-0.658c-0.97,0-1.496,0.544-1.496,1.217     c0,0.756,0.806,1.332,2.153,2.398c1.546,1.234,2.368,2.205,2.368,3.617c0,1.445-1.381,3.125-3.978,3.125     c-1.201,0-2.533-0.363-3.39-1.153l0.841-1.313c0.607,0.443,1.315,0.922,2.349,0.922c0.955,0,1.794-0.51,1.794-1.594     c0-1.268-1.546-2.104-2.468-2.83c-1.116-0.902-2.053-1.611-2.053-3.141c0-1.546,1.562-2.793,3.648-2.793     c1.315,0,2.367,0.479,2.909,1.003L85.369,41.932z"></path>
			<path fill="#424A52" d="M89.445,51.434V39.926h2.318v11.508H89.445z"></path>
			<path fill="#424A52" d="M97.502,51.434v-9.965h-3.551v-1.543h9.418v1.543h-3.551v9.965H97.502z"></path>
			<path fill="#424A52" d="M108.089,51.434v-4.816l-3.535-6.527l2.598-0.328c0.805,1.658,1.594,3.32,2.4,5.311     c0.888-1.99,1.792-3.65,2.681-5.311l1.906,0.328l-3.732,6.527v4.816H108.089z"></path>
		</g>
		<g>
			<path fill="#424A52" d="M30.077,5.785C30.077,2.563,32.512,0,35.816,0c3.304,0,5.737,2.563,5.737,5.785     c0,3.436-2.204,6.118-5.737,6.118C32.281,11.903,30.077,9.221,30.077,5.785z M39.086,5.785c0-2.121-0.969-4.142-3.27-4.142     c-2.303,0-3.273,2.021-3.273,4.142c0,2.205,0.855,4.471,3.273,4.471C38.233,10.256,39.086,7.99,39.086,5.785z"></path>
			<path fill="#424A52" d="M51.155,11.871l-2.828-4.787l-2.729,4.787l-2.088-0.364l3.7-6.051l-3.173-5.095l2.416-0.329l2.121,3.684     l2.106-3.684l2.02,0.329l-3.075,4.881l4.011,6.265L51.155,11.871z"></path>
			<path fill="#424A52" d="M62.382,1.741h-3.847v3.784h3.782v1.542h-3.782v4.638h-2.318V0.194h6.165V1.741z"></path>
			<path fill="#424A52" d="M64.602,5.785C64.602,2.563,67.036,0,70.34,0c3.304,0,5.737,2.563,5.737,5.785     c0,3.436-2.203,6.118-5.737,6.118C66.806,11.903,64.602,9.221,64.602,5.785z M73.611,5.785c0-2.121-0.969-4.142-3.271-4.142     c-2.303,0-3.271,2.021-3.271,4.142c0,2.205,0.854,4.471,3.271,4.471C72.756,10.256,73.611,7.99,73.611,5.785z"></path>
			<path fill="#424A52" d="M78.839,0.194h3.995c2.205,0,3.683,1.053,3.683,3.012c0,1.708-0.855,2.695-1.941,3.336l2.73,4.917     l-2.434,0.444L82.539,7.1h-1.382v4.605h-2.318V0.194z M81.157,5.557h0.937c1.596,0,2.104-1.233,2.104-2.072     c0-1.299-0.92-1.743-1.841-1.743h-1.2V5.557z"></path>
			<path fill="#424A52" d="M93.52,0.194c4.686,0,6.297,2.647,6.297,5.428c0,3.797-2.432,6.083-6.51,6.083h-3.765V0.194H93.52z      M91.86,10.158h1.414c2.647,0,4.078-1.348,4.078-4.553c0-2.383-1.383-3.864-3.815-3.864H91.86V10.158z"></path>
		</g>
		<g>
			<g>
				<path fill="#424A52" d="M0,35.611v-0.886c1.287-0.084,2.258-0.229,2.373-0.743c0.114-0.544,0.114-0.974,0.114-1.745V18.973      c0-0.772,0-1.198-0.114-1.742C2.258,16.716,1.287,16.571,0,16.486v-0.885h9.091c4.002,0,6.574,1.17,6.574,4.344      c0,2.546-1.858,4.202-4.458,4.747v0.056c3.373,0.173,5.802,2.143,5.802,5.147c0,3.887-3.058,5.716-7.433,5.716H0z M6.517,24.606      H8.49c1.517,0,3.173-1.029,3.173-4.202c0-2.747-1.171-3.861-3.573-3.861H6.517V24.606z M6.517,31.379      c0,2.748,0.516,3.289,2.546,3.289c2.172,0,3.43-1.631,3.43-4.459c0-3.432-2.03-4.661-4.316-4.661h-1.66V31.379z"></path>
				<path fill="#424A52" d="M17.618,15.602H27.68c3.259,0,6.117,1.572,6.117,5.06c0,2.602-1.743,4.746-4.23,5.574l2.917,4.489      c1.313,2,2.772,3.855,3.573,4.372v0.515H31.94c-1.685,0-3.429-4.857-5.688-8.805h-2.117v5.431c0,0.771,0,1.201,0.114,1.745      c0.116,0.514,1.116,0.659,2.374,0.743v0.886h-9.004v-0.886c1.257-0.084,2.257-0.229,2.372-0.743      c0.114-0.544,0.114-0.975,0.114-1.745V18.973c0-0.772,0-1.198-0.114-1.742c-0.115-0.515-1.115-0.659-2.372-0.744L17.618,15.602      L17.618,15.602z M24.134,25.693h2.003c2.514,0,3.373-2.145,3.373-4.835c0-3.084-1.402-4.143-3.373-4.143h-2.003V25.693z"></path>
				<path fill="#424A52" d="M35.484,25.75c0-5.805,4.718-10.493,10.864-10.493c5.889,0,9.92,4.802,9.92,9.834      c0,6.604-5.231,10.865-10.949,10.865C40.687,35.956,35.484,32.438,35.484,25.75z M51.837,25.891      c0-6.689-3.203-9.604-6.262-9.604c-3.717,0-5.66,3.43-5.66,8.262c0,6.747,2.917,10.379,6.146,10.379      C50.007,34.926,51.837,31.209,51.837,25.891z"></path>
				<path fill="#424A52" d="M58.119,25.75c0-5.805,4.717-10.493,10.862-10.493c5.891,0,9.92,4.802,9.92,9.834      c0,6.604-5.23,10.865-10.948,10.865C63.321,35.956,58.119,32.438,58.119,25.75z M74.472,25.891c0-6.689-3.203-9.604-6.262-9.604      c-3.717,0-5.661,3.43-5.661,8.262c0,6.747,2.916,10.379,6.146,10.379C72.642,34.926,74.472,31.209,74.472,25.891z"></path>
				<path fill="#424A52" d="M81.56,18.973c0-0.772,0-1.198-0.113-1.742c-0.115-0.515-1.088-0.659-2.374-0.744v-0.885h9.006v0.885      c-1.286,0.085-2.259,0.229-2.374,0.744c-0.114,0.544-0.114,0.97-0.114,1.742v5.861c0.314,0,0.972-0.256,1.86-1.173l4.973-5.059      c1.286-1.288,0.227-2.144-1.086-2.116v-0.885h5.86v0.885c-1.113,0.2-2.199,1.4-3.229,2.458l-5.117,5.345      c2.802,3.577,6.376,8.236,9.176,10.896v0.427h-3.83c-1.259,0-1.886-1.087-2.859-2.4l-5.29-7.403h-0.457v6.431      c0,0.771,0,1.201,0.114,1.745c0.115,0.515,1.088,0.659,2.374,0.743v0.886h-9.006v-0.886c1.286-0.084,2.259-0.229,2.374-0.743      c0.113-0.544,0.113-0.974,0.113-1.745L81.56,18.973L81.56,18.973z"></path>
				<path fill="#424A52" d="M99.452,34.726c1.258-0.084,2.26-0.229,2.374-0.743c0.113-0.544,0.113-0.975,0.113-1.745V18.973      c0-0.772,0-1.198-0.113-1.742c-0.114-0.515-1.116-0.659-2.374-0.744v-0.885h14.037v4.602h-0.771      c-0.429-2.03-1.116-3.544-3.117-3.544h-3.629v8.004h2.373c1.8,0,2.573-1.114,2.573-2.745h0.771v6.662h-0.771      c-0.057-1.572-0.657-2.857-2.573-2.857h-2.373v6.486c0,2.176,1.058,2.345,3.401,2.345c3.63,0,4.174-1.572,5.375-4.114h0.772      l-0.858,5.173h-15.21V34.726z"></path>
				<path fill="#424A52" d="M127.637,20.03c-0.514-1.798-1.571-3.744-3.831-3.744c-1.286,0-2.774,0.8-2.774,2.915      c0,2.004,1.916,3.004,5.034,5.377c2.915,2.2,3.831,3.801,3.831,5.973c0,3.516-3.489,5.404-7.578,5.404      c-2.373,0-3.944-0.345-5.432-0.914c-0.115-0.058-0.199-0.174-0.199-0.399v-4.347h0.772c0.484,2.602,2.115,4.631,4.545,4.631      c1.857,0,3.516-1.516,3.516-3.604c0-1.886-0.829-3.173-4.832-5.774c-2.145-1.372-3.917-2.944-3.917-5.459      c0-2.831,2.717-4.833,6.663-4.833c1.858,0,3.258,0.059,4.687,0.458c0.201,0.085,0.286,0.258,0.286,0.4v3.915H127.637z"></path>
			</g>
		</g>
	</g>
</g>
</svg>